<svg width="40" height="40" viewBox="0 0 40 40" fill="none" xmlns="http://www.w3.org/2000/svg">
<circle cx="20" cy="20" r="20" fill="url(#paint0_linear_3_408)"/>
<g filter="url(#filter0_ddi_3_408)">
<path d="M25.3504 13.5073C25.2857 13.5073 25.2307 13.4949 25.1854 13.4701C25.1401 13.4453 25.1046 13.4018 25.0787 13.3397L24.516 12.0732L23.0994 11.4772C23.0347 11.4523 22.9895 11.4182 22.9636 11.3747C22.9377 11.3313 22.9248 11.2785 22.9248 11.2164C22.9248 11.1543 22.9377 11.1016 22.9636 11.0581C22.9895 11.0146 23.0347 10.9805 23.0994 10.9557L24.516 10.3783L25.0787 9.16763C25.1046 9.10554 25.1401 9.06208 25.1854 9.03725C25.2307 9.01242 25.2857 9 25.3504 9C25.415 9 25.47 9.01242 25.5153 9.03725C25.5606 9.06208 25.5961 9.10554 25.622 9.16763L26.1848 10.3783L27.6013 10.9557C27.666 10.9805 27.7112 11.0146 27.7371 11.0581C27.763 11.1016 27.7759 11.1543 27.7759 11.2164C27.7759 11.2785 27.763 11.3313 27.7371 11.3747C27.7112 11.4182 27.666 11.4523 27.6013 11.4772L26.1848 12.0732L25.622 13.3397C25.5961 13.4018 25.5606 13.4453 25.5153 13.4701C25.47 13.4949 25.415 13.5073 25.3504 13.5073ZM25.3504 24.6081C25.2986 24.6081 25.2469 24.5956 25.1951 24.5708C25.1434 24.546 25.1046 24.5025 25.0787 24.4404L24.516 23.2298L23.1188 22.6524C23.0541 22.6276 23.0089 22.5934 22.983 22.5499C22.9571 22.5065 22.9442 22.4537 22.9442 22.3916C22.9442 22.3295 22.9571 22.2768 22.983 22.2333C23.0089 22.1899 23.0541 22.1557 23.1188 22.1309L24.516 21.5535L25.0787 20.2683C25.1046 20.2063 25.1401 20.1628 25.1854 20.138C25.2307 20.1131 25.2857 20.1007 25.3504 20.1007C25.415 20.1007 25.47 20.1131 25.5153 20.138C25.5606 20.1628 25.5961 20.2063 25.622 20.2683L26.1848 21.5535L27.5819 22.1309C27.6466 22.1557 27.6918 22.1899 27.7177 22.2333C27.7436 22.2768 27.7565 22.3295 27.7565 22.3916C27.7565 22.4537 27.7436 22.5065 27.7177 22.5499C27.6918 22.5934 27.6466 22.6276 27.5819 22.6524L26.1848 23.2298L25.622 24.4404C25.5961 24.5025 25.5573 24.546 25.5056 24.5708C25.4538 24.5956 25.4021 24.6081 25.3504 24.6081ZM16.8317 21.3859C16.7283 21.3859 16.628 21.3579 16.531 21.302C16.4339 21.2462 16.3596 21.1686 16.3078 21.0692L15.0465 18.4803L12.3299 17.3069C12.2264 17.2572 12.1455 17.1858 12.0873 17.0927C12.0291 16.9996 12 16.9034 12 16.804C12 16.7047 12.0291 16.6085 12.0873 16.5153C12.1455 16.4222 12.2264 16.3508 12.3299 16.3011L15.0465 15.1277L16.3078 12.5574C16.3596 12.4457 16.4339 12.3619 16.531 12.306C16.628 12.2501 16.7283 12.2222 16.8317 12.2222C16.9352 12.2222 17.0355 12.2501 17.1325 12.306C17.2295 12.3619 17.3039 12.4395 17.3557 12.5388L18.6364 15.1277L21.3336 16.3011C21.45 16.3508 21.5374 16.4222 21.5956 16.5153C21.6538 16.6085 21.6829 16.7047 21.6829 16.804C21.6829 16.9034 21.6538 16.9996 21.5956 17.0927C21.5374 17.1858 21.45 17.2572 21.3336 17.3069L18.6364 18.4803L17.3557 21.0692C17.3039 21.181 17.2295 21.2617 17.1325 21.3114C17.0355 21.361 16.9352 21.3859 16.8317 21.3859Z" fill="url(#paint1_linear_3_408)" shape-rendering="crispEdges"/>
</g>
<defs>
<filter id="filter0_ddi_3_408" x="5.63323" y="3.43823" width="27.7776" height="28.7075" filterUnits="userSpaceOnUse" color-interpolation-filters="sRGB">
<feFlood flood-opacity="0" result="BackgroundImageFix"/>
<feColorMatrix in="SourceAlpha" type="matrix" values="0 0 0 0 0 0 0 0 0 0 0 0 0 0 0 0 0 0 127 0" result="hardAlpha"/>
<feOffset dx="-1.31726" dy="2.48816"/>
<feGaussianBlur stdDeviation="2.52475"/>
<feComposite in2="hardAlpha" operator="out"/>
<feColorMatrix type="matrix" values="0 0 0 0 0.0506089 0 0 0 0 0.0159861 0 0 0 0 0.191833 0 0 0 0.25 0"/>
<feBlend mode="normal" in2="BackgroundImageFix" result="effect1_dropShadow_3_408"/>
<feColorMatrix in="SourceAlpha" type="matrix" values="0 0 0 0 0 0 0 0 0 0 0 0 0 0 0 0 0 0 127 0" result="hardAlpha"/>
<feOffset dx="1.24408" dy="-1.1709"/>
<feGaussianBlur stdDeviation="2.19544"/>
<feComposite in2="hardAlpha" operator="out"/>
<feColorMatrix type="matrix" values="0 0 0 0 1 0 0 0 0 1 0 0 0 0 1 0 0 0 0.35 0"/>
<feBlend mode="normal" in2="effect1_dropShadow_3_408" result="effect2_dropShadow_3_408"/>
<feBlend mode="normal" in="SourceGraphic" in2="effect2_dropShadow_3_408" result="shape"/>
<feColorMatrix in="SourceAlpha" type="matrix" values="0 0 0 0 0 0 0 0 0 0 0 0 0 0 0 0 0 0 127 0" result="hardAlpha"/>
<feOffset dy="3.07361"/>
<feGaussianBlur stdDeviation="1.9393"/>
<feComposite in2="hardAlpha" operator="arithmetic" k2="-1" k3="1"/>
<feColorMatrix type="matrix" values="0 0 0 0 1 0 0 0 0 1 0 0 0 0 1 0 0 0 1 0"/>
<feBlend mode="normal" in2="shape" result="effect3_innerShadow_3_408"/>
</filter>
<linearGradient id="paint0_linear_3_408" x1="23.8824" y1="33.1765" x2="32.3889" y2="2.42592" gradientUnits="userSpaceOnUse">
<stop stop-color="#4A25E1"/>
<stop offset="0.927091" stop-color="#7B5AFF"/>
</linearGradient>
<linearGradient id="paint1_linear_3_408" x1="22.6457" y1="16.3468" x2="20.3817" y2="27.3004" gradientUnits="userSpaceOnUse">
<stop stop-color="white" stop-opacity="0.96"/>
<stop offset="1" stop-color="white" stop-opacity="0.23"/>
</linearGradient>
</defs>
</svg>
