<svg xmlns="http://www.w3.org/2000/svg" version="1.1" xmlns:xlink="http://www.w3.org/1999/xlink" xmlns:svgjs="http://svgjs.dev/svgjs" width="1000" height="1000" viewBox="0 0 1000 1000"><rect width="1000" height="1000" fill="#000000"></rect><g transform="matrix(0.7,0,0,0.7,149.57575757575756,313.5827015287372)"><svg viewBox="0 0 396 211" data-background-color="#f0ecff" preserveAspectRatio="xMidYMid meet" height="532" width="1000" xmlns="http://www.w3.org/2000/svg" xmlns:xlink="http://www.w3.org/1999/xlink"><g id="tight-bounds" transform="matrix(1,0,0,1,0.2400000000000091,0.12312024016236478)"><svg viewBox="0 0 395.52 210.75375951967527" height="210.75375951967527" width="395.52"><g><svg viewBox="0 0 395.52 210.75375951967527" height="210.75375951967527" width="395.52"><g><svg viewBox="0 0 395.52 210.75375951967527" height="210.75375951967527" width="395.52"><g id="textblocktransform"><svg viewBox="0 0 395.52 210.75375951967527" height="210.75375951967527" width="395.52" id="textblock"><g><svg viewBox="0 0 395.52 153.09182089552237" height="153.09182089552237" width="395.52"><g transform="matrix(1,0,0,1,0,0)"><svg width="395.52" viewBox="1.5 -38.1 100.49 38.9" height="153.09182089552237" data-palette-color="#000000"><path d="M4.4-2.4L4.4-2.4 4.4-33Q4.4-33.95 3.78-34.38 3.15-34.8 1.5-34.8L1.5-34.8 1.5-36.2Q2.6-36.2 4.63-36.75 6.65-37.3 7.6-37.9L7.6-37.9 8.5-38.1 8.5-17.4Q9.5-20.3 11.85-22.15 14.2-24 17.68-24 21.15-24 23.18-21.73 25.2-19.45 25.2-15.6L25.2-15.6Q25.2-8.55 21.5-3.93 17.8 0.7 12.4 0.7L12.4 0.7Q10.5 0.7 8.03-0.45 5.55-1.6 4.4-2.4ZM8.5-13.4L8.5-13.4 8.5-4.5Q8.95-3.6 9.9-2.85L9.9-2.85Q11.7-1.5 13.3-1.5L13.3-1.5Q16.9-1.5 19.35-4.98 21.8-8.45 21.8-13.7L21.8-13.7Q21.8-16.7 20.03-18.65 18.25-20.6 15.53-20.6 12.8-20.6 10.65-17.57 8.5-14.55 8.5-13.4ZM38.5-1.4L38.5 0 28.5 0 28.5-1.4 29.2-1.4Q30.3-1.4 30.8-1.88 31.3-2.35 31.3-3.5L31.3-3.5 31.3-33Q31.3-33.95 30.65-34.38 30-34.8 28.4-34.8L28.4-34.8 28.4-36.2Q29.4-36.2 31.47-36.75 33.55-37.3 34.5-37.9L34.5-37.9 35.4-38.1 35.4-3.6Q35.4-2.8 35.47-2.45 35.55-2.1 36.05-1.75 36.55-1.4 37.6-1.4L37.6-1.4 38.5-1.4ZM61.8-6.1L61.8-6.1 62.7-5.2Q59.5 0.7 51.2 0.7L51.2 0.7Q47.35 0.7 44.62-2.7 41.9-6.1 41.9-10.3L41.9-10.3Q41.9-15.95 45.57-19.98 49.25-24 54.5-24L54.5-24Q57-24 58.9-22.55L58.9-22.55Q62.3-19.9 62.3-15.7L62.3-15.7Q62.3-15.1 62.07-14.25 61.85-13.4 61.7-13.4L61.7-13.4 45.6-12.9Q45.6-9 48.05-5.7 50.5-2.4 54-2.4L54-2.4Q56.5-2.4 58.62-3.43 60.75-4.45 61.8-6.1ZM46.1-14.9L46.1-14.9 57.8-15.4Q57.9-15.4 57.9-16.3L57.9-16.3Q57.9-18.9 56.37-20 54.85-21.1 52.17-21.1 49.5-21.1 47.8-19.45 46.1-17.8 46.1-14.9ZM91.89-1.4L91.89 0 83.19 0 83.19-1.4 83.49-1.4Q83.99-1.4 84.34-1.93 84.69-2.45 84.69-3.3L84.69-3.3 84.69-16Q84.69-20.6 80.69-20.6L80.69-20.6Q77.84-20.6 75.67-17.6 73.49-14.6 73.49-13.1L73.49-13.1 73.49-3.6Q73.49-2.85 73.59-2.45L73.59-2.45Q73.84-1.4 75.69-1.4L75.69-1.4 76.69-1.4 76.69 0 66.59 0 66.59-1.4 67.29-1.4Q68.64-1.4 69.07-1.88 69.49-2.35 69.49-3.3L69.49-3.3 69.49-33Q69.49-33.95 68.84-34.38 68.19-34.8 66.59-34.8L66.59-34.8 66.59-36.2Q67.64-36.2 69.69-36.75 71.74-37.3 72.59-37.9L72.59-37.9 73.49-38.1 73.49-17.4Q76.09-24 82.89-24L82.89-24Q84.69-24 85.97-23.2 87.24-22.4 87.79-21.15L87.79-21.15Q88.79-19.05 88.79-16.9L88.79-16.9 88.79-3.4Q88.79-2.7 88.89-2.35L88.89-2.35Q89.09-1.4 90.89-1.4L90.89-1.4 91.89-1.4ZM99.62-4.7Q100.74-4.7 101.37-3.9 101.99-3.1 101.99-1.95 101.99-0.8 101.04 0 100.09 0.8 98.97 0.8 97.84 0.8 97.22 0 96.59-0.8 96.59-1.9 96.59-3 97.54-3.85 98.49-4.7 99.62-4.7Z" opacity="1" transform="matrix(1,0,0,1,0,0)" fill="#ffffff" class="wordmark-text-0" data-fill-palette-color="primary" id="text-0"></path></svg></g></svg></g><g transform="matrix(1,0,0,1,75.54432,189.23312560525372)"><svg viewBox="0 0 244.43135999999998 21.520633914421552" height="21.520633914421552" width="244.43135999999998"><g transform="matrix(1,0,0,1,0,0)"><svg width="244.43135999999998" viewBox="1.75 -37.5 567.83 50" height="21.520633914421552" data-palette-color="#f0ecff"><path d="M1.75-1.95L1.75 0 7.3 0 7.3-2.05Q7.3-2.65 7.3-3.18 7.3-3.7 7.3-4.35L7.3-4.35Q7.6-3.45 8.35-2.63 9.1-1.8 10.15-1.15L10.15-1.15Q11.15-0.45 12.48-0.05 13.8 0.35 15.3 0.35L15.3 0.35Q17.35 0.35 19.15-0.4 20.95-1.15 22.3-2.5L22.3-2.5Q23.6-3.85 24.38-5.6 25.15-7.35 25.15-9.4L25.15-9.4Q25.15-11.4 24.38-13.2 23.6-15 22.3-16.3L22.3-16.3Q20.95-17.6 19.15-18.38 17.35-19.15 15.3-19.15L15.3-19.15Q13.85-19.15 12.55-18.75 11.25-18.35 10.2-17.7L10.2-17.7Q9.15-17 8.45-16.18 7.75-15.35 7.45-14.5L7.45-14.5Q7.5-15.25 7.5-15.68 7.5-16.1 7.5-16.85L7.5-16.85 7.5-37.5 1.95-37.5 1.95-35.55 5.45-35.55 5.45-1.95 1.75-1.95ZM15.3-17.15L15.3-17.15Q16.9-17.15 18.3-16.57 19.7-16 20.75-15L20.75-15Q21.85-13.95 22.45-12.5 23.05-11.05 23.05-9.4L23.05-9.4Q23.05-7.75 22.45-6.35 21.85-4.95 20.85-3.9L20.85-3.9Q19.75-2.85 18.35-2.25 16.95-1.65 15.3-1.65L15.3-1.65Q13.7-1.65 12.3-2.23 10.9-2.8 9.85-3.85L9.85-3.85Q8.75-4.9 8.13-6.33 7.5-7.75 7.5-9.4L7.5-9.4Q7.5-11 8.08-12.4 8.65-13.8 9.7-14.85L9.7-14.85Q10.75-15.95 12.18-16.55 13.6-17.15 15.3-17.15ZM38.45-17.15L38.45-17.15Q40.4-17.15 41.97-16.07 43.55-15 44.45-13.3L44.45-13.3Q41.05-11.95 37.67-10.63 34.3-9.3 30.9-7.95L30.9-7.95Q30.55-9.65 30.95-11.28 31.35-12.9 32.35-14.2L32.35-14.2Q33.4-15.55 34.97-16.35 36.55-17.15 38.45-17.15ZM45-2.25L45-2.25 43.75-3.75Q42.7-2.75 41.35-2.2 40-1.65 38.45-1.65L38.45-1.65Q36.1-1.65 34.25-2.85 32.4-4.05 31.5-6L31.5-6Q35.4-7.6 39.27-9.1 43.15-10.6 47.05-12.15L47.05-12.15Q46.55-13.65 45.75-14.93 44.95-16.2 43.9-17.1L43.9-17.1Q42.8-18.1 41.4-18.63 40-19.15 38.45-19.15L38.45-19.15Q36.4-19.15 34.62-18.38 32.85-17.6 31.5-16.3L31.5-16.3Q30.15-15 29.4-13.2 28.65-11.4 28.65-9.4L28.65-9.4Q28.65-7.35 29.4-5.6 30.15-3.85 31.5-2.5L31.5-2.5Q32.85-1.15 34.62-0.4 36.4 0.35 38.45 0.35L38.45 0.35Q40.4 0.35 42.05-0.35 43.7-1.05 45-2.25ZM50.7 0L60.35 0 60.35-1.95 56.45-1.95 56.45-37.5 50.85-37.5 50.85-35.55 54.4-35.55 54.4-1.95 50.7-1.95 50.7 0ZM63.84 0L73.49 0 73.49-1.95 69.74-1.95 69.74-18.75 63.84-18.75 63.84-16.8 67.69-16.8 67.69-1.95 63.84-1.95 63.84 0ZM70.39-25.4L70.39-25.4Q70.39-26.1 69.89-26.58 69.39-27.05 68.74-27.05L68.74-27.05Q68.14-27.05 67.64-26.58 67.14-26.1 67.14-25.4L67.14-25.4Q67.14-24.7 67.64-24.23 68.14-23.75 68.74-23.75L68.74-23.75Q69.39-23.75 69.89-24.23 70.39-24.7 70.39-25.4ZM86.79-17.15L86.79-17.15Q88.74-17.15 90.32-16.07 91.89-15 92.79-13.3L92.79-13.3Q89.39-11.95 86.02-10.63 82.64-9.3 79.24-7.95L79.24-7.95Q78.89-9.65 79.29-11.28 79.69-12.9 80.69-14.2L80.69-14.2Q81.74-15.55 83.32-16.35 84.89-17.15 86.79-17.15ZM93.34-2.25L93.34-2.25 92.09-3.75Q91.04-2.75 89.69-2.2 88.34-1.65 86.79-1.65L86.79-1.65Q84.44-1.65 82.59-2.85 80.74-4.05 79.84-6L79.84-6Q83.74-7.6 87.62-9.1 91.49-10.6 95.39-12.15L95.39-12.15Q94.89-13.65 94.09-14.93 93.29-16.2 92.24-17.1L92.24-17.1Q91.14-18.1 89.74-18.63 88.34-19.15 86.79-19.15L86.79-19.15Q84.74-19.15 82.97-18.38 81.19-17.6 79.84-16.3L79.84-16.3Q78.49-15 77.74-13.2 76.99-11.4 76.99-9.4L76.99-9.4Q76.99-7.35 77.74-5.6 78.49-3.85 79.84-2.5L79.84-2.5Q81.19-1.15 82.97-0.4 84.74 0.35 86.79 0.35L86.79 0.35Q88.74 0.35 90.39-0.35 92.04-1.05 93.34-2.25ZM121.29-16.8L121.29-16.8 124.94-16.8 124.94-18.75 116.19-18.75 116.19-16.8 119.14-16.8Q117.29-13.15 115.44-9.55 113.59-5.95 112.09-2.6L112.09-2.6Q110.44-6.15 108.64-9.7 106.84-13.25 104.99-16.8L104.99-16.8 108.29-16.8 108.29-18.75 99.04-18.75 99.04-16.8 102.89-16.8Q105.19-12.25 107.49-7.8 109.79-3.35 112.09 1.15L112.09 1.15Q114.39-3.35 116.69-7.8 118.99-12.25 121.29-16.8ZM138.24-17.15L138.24-17.15Q140.19-17.15 141.76-16.07 143.34-15 144.24-13.3L144.24-13.3Q140.84-11.95 137.46-10.63 134.09-9.3 130.69-7.95L130.69-7.95Q130.34-9.65 130.74-11.28 131.14-12.9 132.14-14.2L132.14-14.2Q133.19-15.55 134.76-16.35 136.34-17.15 138.24-17.15ZM144.79-2.25L144.79-2.25 143.54-3.75Q142.49-2.75 141.14-2.2 139.79-1.65 138.24-1.65L138.24-1.65Q135.89-1.65 134.04-2.85 132.19-4.05 131.29-6L131.29-6Q135.19-7.6 139.06-9.1 142.94-10.6 146.84-12.15L146.84-12.15Q146.34-13.65 145.54-14.93 144.74-16.2 143.69-17.1L143.69-17.1Q142.59-18.1 141.19-18.63 139.79-19.15 138.24-19.15L138.24-19.15Q136.19-19.15 134.41-18.38 132.64-17.6 131.29-16.3L131.29-16.3Q129.94-15 129.19-13.2 128.44-11.4 128.44-9.4L128.44-9.4Q128.44-7.35 129.19-5.6 129.94-3.85 131.29-2.5L131.29-2.5Q132.64-1.15 134.41-0.4 136.19 0.35 138.24 0.35L138.24 0.35Q140.19 0.35 141.84-0.35 143.49-1.05 144.79-2.25ZM154.63-1.65L154.63-1.65Q154.63-2.3 154.13-2.78 153.63-3.25 153.03-3.25L153.03-3.25Q152.38-3.25 151.88-2.78 151.38-2.3 151.38-1.65L151.38-1.65Q151.38-0.95 151.88-0.48 152.38 0 153.03 0L153.03 0Q153.63 0 154.13-0.48 154.63-0.95 154.63-1.65ZM173.63 0L183.28 0 183.28-1.95 179.38-1.95 179.38-37.5 173.78-37.5 173.78-35.55 177.33-35.55 177.33-1.95 173.63-1.95 173.63 0ZM196.58-17.15L196.58-17.15Q198.53-17.15 200.1-16.07 201.68-15 202.58-13.3L202.58-13.3Q199.18-11.95 195.8-10.63 192.43-9.3 189.03-7.95L189.03-7.95Q188.68-9.65 189.08-11.28 189.48-12.9 190.48-14.2L190.48-14.2Q191.53-15.55 193.1-16.35 194.68-17.15 196.58-17.15ZM203.13-2.25L203.13-2.25 201.88-3.75Q200.83-2.75 199.48-2.2 198.13-1.65 196.58-1.65L196.58-1.65Q194.23-1.65 192.38-2.85 190.53-4.05 189.63-6L189.63-6Q193.53-7.6 197.4-9.1 201.28-10.6 205.18-12.15L205.18-12.15Q204.68-13.65 203.88-14.93 203.08-16.2 202.03-17.1L202.03-17.1Q200.93-18.1 199.53-18.63 198.13-19.15 196.58-19.15L196.58-19.15Q194.53-19.15 192.75-18.38 190.98-17.6 189.63-16.3L189.63-16.3Q188.28-15 187.53-13.2 186.78-11.4 186.78-9.4L186.78-9.4Q186.78-7.35 187.53-5.6 188.28-3.85 189.63-2.5L189.63-2.5Q190.98-1.15 192.75-0.4 194.53 0.35 196.58 0.35L196.58 0.35Q198.53 0.35 200.18-0.35 201.83-1.05 203.13-2.25ZM226.67 0L232.22 0 232.22-1.95 228.52-1.95 228.52-18.75 226.87-18.75Q226.77-17.65 226.72-16.53 226.67-15.4 226.67-14.35L226.67-14.35Q225.82-16.3 223.72-17.73 221.62-19.15 218.67-19.15L218.67-19.15Q216.57-19.15 214.8-18.38 213.02-17.6 211.67-16.3L211.67-16.3Q210.32-14.95 209.57-13.15 208.82-11.35 208.82-9.4L208.82-9.4Q208.82-7.35 209.57-5.6 210.32-3.85 211.67-2.5L211.67-2.5Q213.02-1.15 214.8-0.4 216.57 0.35 218.67 0.35L218.67 0.35Q220.17 0.35 221.5-0.05 222.82-0.45 223.87-1.15L223.87-1.15Q224.87-1.8 225.6-2.63 226.32-3.45 226.67-4.35L226.67-4.35Q226.67-3.7 226.67-3.18 226.67-2.65 226.67-2.05L226.67-2.05 226.67 0ZM218.67-17.15L218.67-17.15Q220.27-17.15 221.67-16.57 223.07-16 224.17-14.95L224.17-14.95Q225.22-13.9 225.85-12.48 226.47-11.05 226.47-9.4L226.47-9.4Q226.47-7.75 225.85-6.33 225.22-4.9 224.12-3.85L224.12-3.85Q223.07-2.8 221.67-2.23 220.27-1.65 218.67-1.65L218.67-1.65Q217.07-1.65 215.72-2.2 214.37-2.75 213.32-3.75L213.32-3.75Q212.17-4.8 211.52-6.25 210.87-7.7 210.87-9.4L210.87-9.4Q210.87-11 211.45-12.4 212.02-13.8 213.07-14.85L213.07-14.85Q214.07-15.95 215.52-16.55 216.97-17.15 218.67-17.15ZM235.72 0L245.37 0 245.37-1.95 241.67-1.95 241.67-10.25Q241.67-11.8 242.32-13.13 242.97-14.45 244.12-15.3L244.12-15.3Q245.12-16.15 246.45-16.63 247.77-17.1 249.27-17.1L249.27-17.1 249.37-19.15Q248.22-19.1 247.1-18.75 245.97-18.4 244.92-17.75L244.92-17.75Q243.82-17.1 242.95-16.13 242.07-15.15 241.52-13.9L241.52-13.9Q241.47-14.75 241.47-15 241.47-15.25 241.42-16.1L241.42-16.1 241.27-18.75 236.02-18.75 236.02-16.8 239.62-16.8 239.62-1.95 235.72-1.95 235.72 0ZM252.87 0L262.52 0 262.52-1.95 258.82-1.95 258.82-10.25Q258.82-11.75 259.44-13 260.07-14.25 261.17-15.2L261.17-15.2Q262.17-16.1 263.57-16.6 264.97-17.1 266.52-17.1L266.52-17.1Q268.62-17 269.69-15.83 270.77-14.65 270.87-13L270.87-13 270.87-1.95 266.97-1.95 266.97 0 276.62 0 276.62-1.95 272.92-1.95 272.92-13.55Q272.82-16.05 271.22-17.6 269.62-19.15 266.87-19.15L266.87-19.15Q264.07-19.15 261.87-17.7 259.67-16.25 258.67-13.9L258.67-13.9Q258.62-14.75 258.57-15.43 258.52-16.1 258.47-16.95L258.47-16.95 258.42-18.75 253.17-18.75 253.17-16.8 256.77-16.8 256.77-1.95 252.87-1.95 252.87 0ZM284.27-1.65L284.27-1.65Q284.27-2.3 283.77-2.78 283.27-3.25 282.67-3.25L282.67-3.25Q282.02-3.25 281.52-2.78 281.02-2.3 281.02-1.65L281.02-1.65Q281.02-0.95 281.52-0.48 282.02 0 282.67 0L282.67 0Q283.27 0 283.77-0.48 284.27-0.95 284.27-1.65ZM313.06-17.15L313.06-17.15Q315.01-17.15 316.59-16.07 318.16-15 319.06-13.3L319.06-13.3Q315.66-11.95 312.29-10.63 308.91-9.3 305.51-7.95L305.51-7.95Q305.16-9.65 305.56-11.28 305.96-12.9 306.96-14.2L306.96-14.2Q308.01-15.55 309.59-16.35 311.16-17.15 313.06-17.15ZM319.61-2.25L319.61-2.25 318.36-3.75Q317.31-2.75 315.96-2.2 314.61-1.65 313.06-1.65L313.06-1.65Q310.71-1.65 308.86-2.85 307.01-4.05 306.11-6L306.11-6Q310.01-7.6 313.89-9.1 317.76-10.6 321.66-12.15L321.66-12.15Q321.16-13.65 320.36-14.93 319.56-16.2 318.51-17.1L318.51-17.1Q317.41-18.1 316.01-18.63 314.61-19.15 313.06-19.15L313.06-19.15Q311.01-19.15 309.24-18.38 307.46-17.6 306.11-16.3L306.11-16.3Q304.76-15 304.01-13.2 303.26-11.4 303.26-9.4L303.26-9.4Q303.26-7.35 304.01-5.6 304.76-3.85 306.11-2.5L306.11-2.5Q307.46-1.15 309.24-0.4 311.01 0.35 313.06 0.35L313.06 0.35Q315.01 0.35 316.66-0.35 318.31-1.05 319.61-2.25ZM325.31 0L334.51 0 334.51-1.95 331.56-1.95Q332.61-3.45 333.68-4.93 334.76-6.4 335.81-7.95L335.81-7.95Q336.91-6.45 337.98-4.98 339.06-3.5 340.21-1.95L340.21-1.95 337.31-1.95 337.31 0 346.96 0 346.96-1.95 342.76-1.95Q341.41-3.75 340.13-5.5 338.86-7.25 337.56-9.05L337.56-9.05 343.11-16.8 346.96-16.8 346.96-18.75 337.76-18.75 337.76-16.8 340.66-16.8 336.26-10.65 331.81-16.8 334.96-16.8 334.96-18.75 325.31-18.75 325.31-16.8 329.31-16.8Q330.61-14.95 331.93-13.2 333.26-11.45 334.56-9.65L334.56-9.65Q333.16-7.7 331.78-5.8 330.41-3.9 329.01-1.95L329.01-1.95 325.31-1.95 325.31 0ZM350.86 10.55L350.86 12.5 360.51 12.5 360.51 10.55 356.26 10.55 356.26-2.25Q356.26-2.7 356.23-3.18 356.21-3.65 356.21-4.15L356.21-4.15Q356.56-3.25 357.23-2.48 357.91-1.7 358.96-1.05L358.96-1.05Q359.96-0.35 361.26 0.03 362.56 0.4 364.06 0.4L364.06 0.4Q366.06 0.4 367.86-0.38 369.66-1.15 371.01-2.45L371.01-2.45Q372.36-3.75 373.11-5.55 373.86-7.35 373.86-9.35L373.86-9.35Q373.86-11.35 373.11-13.13 372.36-14.9 371.01-16.25L371.01-16.25Q369.66-17.6 367.86-18.35 366.06-19.1 364.06-19.1L364.06-19.1Q361.06-19.1 358.96-17.65 356.86-16.2 356.01-14.25L356.01-14.25Q356.01-15.35 355.93-16.48 355.86-17.6 355.86-18.75L355.86-18.75 350.46-18.75 350.46-16.8 354.21-16.8 354.21 10.55 350.86 10.55ZM364.06-17.1L364.06-17.1Q365.61-17.1 367.01-16.53 368.41-15.95 369.46-15L369.46-15Q370.56-13.95 371.18-12.5 371.81-11.05 371.81-9.35L371.81-9.35Q371.81-7.7 371.18-6.25 370.56-4.8 369.46-3.75L369.46-3.75Q368.41-2.75 367.01-2.18 365.61-1.6 364.06-1.6L364.06-1.6Q362.41-1.6 361.01-2.18 359.61-2.75 358.56-3.75L358.56-3.75Q357.46-4.85 356.86-6.28 356.26-7.7 356.26-9.35L356.26-9.35Q356.26-10.95 356.83-12.38 357.41-13.8 358.46-14.85L358.46-14.85Q359.51-15.9 360.93-16.5 362.36-17.1 364.06-17.1ZM377.35 0L387 0 387-1.95 383.1-1.95 383.1-37.5 377.5-37.5 377.5-35.55 381.05-35.55 381.05-1.95 377.35-1.95 377.35 0ZM407.4-2.5L407.4-2.5Q408.7-3.85 409.48-5.6 410.25-7.35 410.25-9.4L410.25-9.4Q410.25-11.4 409.48-13.2 408.7-15 407.4-16.35L407.4-16.35Q406.05-17.65 404.23-18.43 402.4-19.2 400.35-19.2L400.35-19.2Q398.3-19.2 396.5-18.43 394.7-17.65 393.4-16.35L393.4-16.35Q392.05-15 391.3-13.2 390.55-11.4 390.55-9.4L390.55-9.4Q390.55-7.35 391.3-5.58 392.05-3.8 393.4-2.5L393.4-2.5Q394.7-1.15 396.48-0.4 398.25 0.35 400.35 0.35L400.35 0.35Q402.4 0.35 404.23-0.4 406.05-1.15 407.4-2.5ZM394.85-3.95L394.85-3.95Q393.8-4.95 393.2-6.35 392.6-7.75 392.6-9.4L392.6-9.4Q392.6-11 393.2-12.4 393.8-13.8 394.85-14.9L394.85-14.9Q395.9-15.95 397.3-16.55 398.7-17.15 400.3-17.15L400.3-17.15Q401.9-17.15 403.32-16.55 404.75-15.95 405.8-14.9L405.8-14.9Q406.9-13.8 407.5-12.4 408.1-11 408.1-9.4L408.1-9.4Q408.1-7.75 407.5-6.35 406.9-4.95 405.8-3.95L405.8-3.95Q404.75-2.85 403.32-2.25 401.9-1.65 400.3-1.65L400.3-1.65Q398.7-1.65 397.3-2.25 395.9-2.85 394.85-3.95ZM413.75 0L423.4 0 423.4-1.95 419.7-1.95 419.7-10.25Q419.7-11.8 420.35-13.13 421-14.45 422.15-15.3L422.15-15.3Q423.15-16.15 424.47-16.63 425.8-17.1 427.3-17.1L427.3-17.1 427.4-19.15Q426.25-19.1 425.12-18.75 424-18.4 422.95-17.75L422.95-17.75Q421.85-17.1 420.97-16.13 420.1-15.15 419.55-13.9L419.55-13.9Q419.5-14.75 419.5-15 419.5-15.25 419.45-16.1L419.45-16.1 419.3-18.75 414.05-18.75 414.05-16.8 417.65-16.8 417.65-1.95 413.75-1.95 413.75 0ZM440.69-17.15L440.69-17.15Q442.64-17.15 444.22-16.07 445.79-15 446.69-13.3L446.69-13.3Q443.29-11.95 439.92-10.63 436.54-9.3 433.14-7.95L433.14-7.95Q432.79-9.65 433.19-11.28 433.59-12.9 434.59-14.2L434.59-14.2Q435.64-15.55 437.22-16.35 438.79-17.15 440.69-17.15ZM447.25-2.25L447.25-2.25 446-3.75Q444.94-2.75 443.59-2.2 442.25-1.65 440.69-1.65L440.69-1.65Q438.34-1.65 436.5-2.85 434.64-4.05 433.75-6L433.75-6Q437.64-7.6 441.52-9.1 445.39-10.6 449.29-12.15L449.29-12.15Q448.79-13.65 448-14.93 447.19-16.2 446.14-17.1L446.14-17.1Q445.04-18.1 443.64-18.63 442.25-19.15 440.69-19.15L440.69-19.15Q438.64-19.15 436.87-18.38 435.09-17.6 433.75-16.3L433.75-16.3Q432.39-15 431.64-13.2 430.89-11.4 430.89-9.4L430.89-9.4Q430.89-7.35 431.64-5.6 432.39-3.85 433.75-2.5L433.75-2.5Q435.09-1.15 436.87-0.4 438.64 0.35 440.69 0.35L440.69 0.35Q442.64 0.35 444.29-0.35 445.94-1.05 447.25-2.25ZM457.09-1.65L457.09-1.65Q457.09-2.3 456.59-2.78 456.09-3.25 455.49-3.25L455.49-3.25Q454.84-3.25 454.34-2.78 453.84-2.3 453.84-1.65L453.84-1.65Q453.84-0.95 454.34-0.48 454.84 0 455.49 0L455.49 0Q456.09 0 456.59-0.48 457.09-0.95 457.09-1.65ZM476.09 0L485.74 0 485.74-1.95 482.04-1.95 482.04-10.25Q482.04-11.75 482.66-13 483.29-14.25 484.39-15.2L484.39-15.2Q485.39-16.1 486.79-16.6 488.19-17.1 489.74-17.1L489.74-17.1Q491.84-17 492.91-15.83 493.99-14.65 494.09-13L494.09-13 494.09-1.95 490.19-1.95 490.19 0 499.84 0 499.84-1.95 496.14-1.95 496.14-13.55Q496.04-16.05 494.44-17.6 492.84-19.15 490.09-19.15L490.09-19.15Q487.24-19.1 485.09-17.7 482.94-16.3 481.89-13.9L481.89-13.9 482.04-16.15 482.04-37.5 476.29-37.5 476.29-35.55 479.99-35.55 479.99-1.95 476.09-1.95 476.09 0ZM513.13-17.15L513.13-17.15Q515.09-17.15 516.66-16.07 518.24-15 519.13-13.3L519.13-13.3Q515.74-11.95 512.36-10.63 508.98-9.3 505.58-7.95L505.58-7.95Q505.23-9.65 505.63-11.28 506.03-12.9 507.03-14.2L507.03-14.2Q508.08-15.55 509.66-16.35 511.23-17.15 513.13-17.15ZM519.68-2.25L519.68-2.25 518.43-3.75Q517.38-2.75 516.03-2.2 514.68-1.65 513.13-1.65L513.13-1.65Q510.78-1.65 508.94-2.85 507.08-4.05 506.19-6L506.19-6Q510.08-7.6 513.96-9.1 517.84-10.6 521.74-12.15L521.74-12.15Q521.24-13.65 520.43-14.93 519.63-16.2 518.59-17.1L518.59-17.1Q517.49-18.1 516.09-18.63 514.68-19.15 513.13-19.15L513.13-19.15Q511.08-19.15 509.31-18.38 507.53-17.6 506.19-16.3L506.19-16.3Q504.83-15 504.08-13.2 503.33-11.4 503.33-9.4L503.33-9.4Q503.33-7.35 504.08-5.6 504.83-3.85 506.19-2.5L506.19-2.5Q507.53-1.15 509.31-0.4 511.08 0.35 513.13 0.35L513.13 0.35Q515.09 0.35 516.74-0.35 518.38-1.05 519.68-2.25ZM525.38 0L535.03 0 535.03-1.95 531.13-1.95 531.13-37.5 525.53-37.5 525.53-35.55 529.08-35.55 529.08-1.95 525.38-1.95 525.38 0ZM538.93 10.55L538.93 12.5 548.58 12.5 548.58 10.55 544.33 10.55 544.33-2.25Q544.33-2.7 544.3-3.18 544.28-3.65 544.28-4.15L544.28-4.15Q544.63-3.25 545.3-2.48 545.98-1.7 547.03-1.05L547.03-1.05Q548.03-0.35 549.33 0.03 550.63 0.4 552.13 0.4L552.13 0.4Q554.13 0.4 555.93-0.38 557.73-1.15 559.08-2.45L559.08-2.45Q560.43-3.75 561.18-5.55 561.93-7.35 561.93-9.35L561.93-9.35Q561.93-11.35 561.18-13.13 560.43-14.9 559.08-16.25L559.08-16.25Q557.73-17.6 555.93-18.35 554.13-19.1 552.13-19.1L552.13-19.1Q549.13-19.1 547.03-17.65 544.93-16.2 544.08-14.25L544.08-14.25Q544.08-15.35 544-16.48 543.93-17.6 543.93-18.75L543.93-18.75 538.53-18.75 538.53-16.8 542.28-16.8 542.28 10.55 538.93 10.55ZM552.13-17.1L552.13-17.1Q553.68-17.1 555.08-16.53 556.48-15.95 557.53-15L557.53-15Q558.63-13.95 559.25-12.5 559.88-11.05 559.88-9.35L559.88-9.35Q559.88-7.7 559.25-6.25 558.63-4.8 557.53-3.75L557.53-3.75Q556.48-2.75 555.08-2.18 553.68-1.6 552.13-1.6L552.13-1.6Q550.48-1.6 549.08-2.18 547.68-2.75 546.63-3.75L546.63-3.75Q545.53-4.85 544.93-6.28 544.33-7.7 544.33-9.35L544.33-9.35Q544.33-10.95 544.9-12.38 545.48-13.8 546.53-14.85L546.53-14.85Q547.58-15.9 549-16.5 550.43-17.1 552.13-17.1ZM569.58-1.65L569.58-1.65Q569.58-2.3 569.08-2.78 568.58-3.25 567.98-3.25L567.98-3.25Q567.33-3.25 566.83-2.78 566.33-2.3 566.33-1.65L566.33-1.65Q566.33-0.95 566.83-0.48 567.33 0 567.98 0L567.98 0Q568.58 0 569.08-0.48 569.58-0.95 569.58-1.65Z" opacity="1" transform="matrix(1,0,0,1,0,0)" fill="#ffffff" class="slogan-text-1" data-fill-palette-color="secondary" id="text-1"></path></svg></g></svg></g></svg></g></svg></g><g></g></svg></g><defs></defs></svg><rect width="395.52" height="210.75375951967527" fill="none" stroke="none" visibility="hidden"></rect></g></svg></g></svg>